<?xml version="1.0" standalone="no"?>
<!DOCTYPE svg PUBLIC "-//W3C//DTD SVG 20010904//EN"
 "http://www.w3.org/TR/2001/REC-SVG-20010904/DTD/svg10.dtd">
<svg version="1.0" xmlns="http://www.w3.org/2000/svg"
 width="100.000000pt" height="100.000000pt" viewBox="0 0 100.000000 100.000000"
 preserveAspectRatio="xMidYMid meet">
<metadata>
Created by potrace 1.10, written by Peter Selinger 2001-2011
</metadata>
<g transform="translate(0.000000,100.000000) scale(0.100000,-0.100000)"
fill="#ffffff" stroke="none">
<path d="M315 989 c-81 -8 -144 -38 -209 -99 -73 -69 -97 -127 -97 -231 0 -90
19 -143 71 -202 l33 -38 -57 -55 c-31 -30 -56 -59 -56 -63 0 -37 95 -41 195
-7 40 14 72 20 74 15 8 -25 71 -97 108 -125 68 -52 145 -76 243 -77 64 0 102
-6 154 -24 116 -40 216 -43 216 -6 0 9 -23 40 -51 70 l-51 54 25 27 c51 54 72
111 76 205 3 79 0 93 -23 142 -32 65 -118 147 -180 170 -34 13 -48 25 -62 57
-25 56 -122 142 -186 166 -61 23 -138 30 -223 21z m210 -58 c149 -66 221 -205
180 -346 -13 -46 -28 -70 -73 -115 -77 -76 -143 -102 -272 -105 -69 -1 -111
-8 -153 -24 -32 -12 -79 -24 -105 -28 l-46 -6 41 39 c58 55 64 85 24 125 -56
55 -76 105 -76 189 0 58 5 84 22 116 47 88 116 144 212 171 64 18 187 10 246
-16z m303 -245 c84 -53 142 -151 142 -240 0 -62 -16 -108 -60 -174 -22 -33
-40 -67 -40 -76 0 -9 18 -36 40 -60 22 -24 40 -47 40 -51 0 -13 -93 2 -161 26
-43 16 -98 25 -169 29 -152 8 -243 53 -306 152 -13 21 -24 39 -24 41 0 2 25 2
56 -1 109 -9 212 27 294 104 68 63 100 135 100 223 l0 71 25 -10 c13 -5 42
-20 63 -34z"/>
</g>
</svg>
