<?xml version="1.0" standalone="no"?>
<!DOCTYPE svg PUBLIC "-//W3C//DTD SVG 20010904//EN"
 "http://www.w3.org/TR/2001/REC-SVG-20010904/DTD/svg10.dtd">
<svg version="1.0" xmlns="http://www.w3.org/2000/svg"
 width="100.000000pt" height="100.000000pt" viewBox="0 0 100.000000 100.000000"
 preserveAspectRatio="xMidYMid meet">
<metadata>
Created by potrace 1.10, written by Peter Selinger 2001-2011
</metadata>
<g transform="translate(0.000000,100.000000) scale(0.100000,-0.100000)"
fill="#ffffff" stroke="none">
<path d="M378 941 c-117 -30 -231 -124 -287 -235 -145 -290 48 -633 373 -663
289 -26 537 242 488 530 -17 97 -54 170 -124 243 -120 126 -279 170 -450 125z
m105 -41 c7 -26 27 -26 34 1 5 18 11 20 44 15 105 -17 214 -82 274 -164 38
-51 71 -130 81 -191 5 -33 3 -39 -15 -44 -12 -3 -21 -10 -21 -17 0 -7 9 -14
21 -17 18 -5 20 -11 15 -44 -29 -181 -174 -326 -355 -355 -33 -5 -39 -3 -44
15 -7 27 -27 27 -34 0 -5 -18 -11 -20 -44 -15 -181 29 -326 174 -355 355 -5
33 -3 39 15 44 27 7 27 27 0 34 -18 5 -20 11 -15 44 25 156 141 291 291 339
79 25 101 25 108 0z"/>
<path d="M600 669 c-74 -49 -143 -98 -153 -107 -11 -9 -62 -81 -115 -160 -127
-189 -120 -197 69 -72 154 103 168 118 284 292 68 103 82 138 56 138 -4 0 -67
-41 -141 -91z m85 4 c-9 -16 -42 -65 -74 -110 l-58 -82 -33 34 c-23 24 -31 38
-24 45 11 11 197 140 202 140 2 0 -4 -12 -13 -27z m-180 -173 c16 -16 27 -31
24 -33 -2 -2 -48 -34 -101 -71 -54 -37 -98 -71 -98 -76 0 -6 -4 -10 -10 -10
-5 0 12 28 38 63 26 34 61 83 77 109 17 27 33 48 36 48 3 0 18 -13 34 -30z"/>
</g>
</svg>
