 <svg  version="1.0" xmlns="http://www.w3.org/2000/svg"  width="100.000000pt" height="100.000000pt" viewBox="0 0 100.000000 100.000000"  preserveAspectRatio="xMidYMid meet">  <g transform="translate(0.000000,100.000000) scale(0.100000,-0.100000)" fill="#ffffff" stroke="none"> <path d="M60 900 c-19 -19 -20 -33 -20 -400 0 -367 1 -381 20 -400 19 -19 33 -20 440 -20 407 0 421 1 440 20 19 19 20 33 20 400 0 367 -1 381 -20 400 -19 19 -33 20 -440 20 -407 0 -421 -1 -440 -20z m855 -400 l0 -375 -415 0 -415 0 -3 365 c-1 201 0 371 3 378 3 10 92 12 417 10 l413 -3 0 -375z"/> <path d="M200 700 c0 -20 4 -20 298 -18 256 3 297 5 297 18 0 13 -41 15 -297 18 -294 2 -298 2 -298 -18z"/> <path d="M200 500 c0 -20 4 -20 298 -18 256 3 297 5 297 18 0 13 -41 15 -297 18 -294 2 -298 2 -298 -18z"/> <path d="M200 300 c0 -20 4 -20 298 -18 256 3 297 5 297 18 0 13 -41 15 -297 18 -294 2 -298 2 -298 -18z"/> </g> </svg> 