<?xml version="1.0" standalone="no"?>
<!DOCTYPE svg PUBLIC "-//W3C//DTD SVG 20010904//EN"
 "http://www.w3.org/TR/2001/REC-SVG-20010904/DTD/svg10.dtd">
<svg version="1.0" xmlns="http://www.w3.org/2000/svg"
 width="50.000000pt" height="50.000000pt" viewBox="0 0 50.000000 50.000000"
 preserveAspectRatio="xMidYMid meet">
<metadata>
Created by potrace 1.10, written by Peter Selinger 2001-2011
</metadata>
<g transform="translate(0.000000,50.000000) scale(0.100000,-0.100000)"
fill="#ffffff" stroke="none">
<path d="M210 456 c0 -23 -23 -56 -38 -56 -4 0 -18 9 -32 20 -25 19 -25 19
-52 -7 l-27 -26 19 -28 c11 -15 20 -29 20 -32 0 -14 -34 -37 -56 -37 -21 0
-24 -4 -24 -40 0 -36 3 -40 24 -40 23 0 56 -23 56 -38 0 -4 -9 -18 -20 -32
-19 -25 -19 -25 7 -52 l26 -27 28 19 c15 11 29 20 32 20 14 0 37 -34 37 -56 0
-21 4 -24 40 -24 36 0 40 3 40 24 0 22 23 56 37 56 3 0 17 -9 32 -20 l28 -19
26 27 c26 27 26 27 7 52 -11 14 -20 28 -20 32 0 15 33 38 56 38 21 0 24 4 24
40 0 36 -3 40 -24 40 -22 0 -56 23 -56 37 0 3 9 17 20 32 l19 28 -27 26 c-27
26 -27 26 -52 7 -14 -11 -28 -20 -32 -20 -15 0 -38 33 -38 56 0 21 -4 24 -40
24 -36 0 -40 -3 -40 -24z m65 -28 c13 -43 55 -60 85 -33 16 15 22 16 35 5 14
-12 14 -15 0 -37 -11 -16 -14 -34 -10 -53 5 -24 13 -31 41 -36 47 -9 47 -39 0
-48 -28 -5 -36 -12 -41 -37 -5 -22 -2 -36 10 -49 15 -16 15 -22 5 -35 -11 -13
-15 -13 -41 2 -38 23 -77 6 -85 -37 -4 -20 -13 -30 -24 -30 -11 0 -20 10 -24
30 -8 43 -47 60 -85 37 -26 -15 -30 -15 -41 -2 -10 13 -9 19 5 35 27 30 10 72
-33 85 -42 12 -43 40 -2 49 43 8 60 47 37 85 -15 26 -15 30 -2 41 13 10 19 9
35 -5 30 -27 72 -10 85 33 5 18 16 32 25 32 9 0 20 -14 25 -32z"/>
<path d="M195 305 c-33 -32 -33 -78 0 -110 32 -33 78 -33 110 0 50 49 15 135
-55 135 -19 0 -40 -9 -55 -25z m95 -15 c11 -11 20 -29 20 -40 0 -26 -34 -60
-60 -60 -26 0 -60 34 -60 60 0 11 9 29 20 40 11 11 29 20 40 20 11 0 29 -9 40
-20z"/>
</g>
</svg>
