<?xml version="1.0" standalone="no"?>
<!DOCTYPE svg PUBLIC "-//W3C//DTD SVG 20010904//EN"
 "http://www.w3.org/TR/2001/REC-SVG-20010904/DTD/svg10.dtd">
<svg version="1.0" xmlns="http://www.w3.org/2000/svg"
 width="100.000000pt" height="100.000000pt" viewBox="0 0 100.000000 100.000000"
 preserveAspectRatio="xMidYMid meet">
<metadata>
Created by potrace 1.10, written by Peter Selinger 2001-2011
</metadata>
<g transform="translate(0.000000,100.000000) scale(0.100000,-0.100000)"
fill="#ffffff" stroke="none">
<path d="M378 941 c-117 -30 -231 -124 -287 -235 -135 -269 22 -593 317 -654
374 -77 672 313 501 655 -60 118 -192 220 -318 243 -75 14 -135 12 -213 -9z
m227 -36 c209 -54 344 -261 308 -471 -12 -69 -47 -150 -86 -198 l-24 -29 -44
20 c-24 11 -65 28 -91 37 -25 9 -52 24 -58 32 -10 12 -8 14 16 14 16 0 49 9
73 20 40 18 43 22 36 48 -4 15 -10 92 -14 172 -10 196 -33 244 -131 271 -121
33 -214 1 -264 -90 -24 -44 -29 -70 -37 -179 -6 -70 -15 -142 -20 -159 -6 -18
-7 -38 -3 -44 10 -17 70 -39 105 -39 26 0 29 -2 19 -14 -6 -8 -33 -23 -58 -32
-26 -9 -67 -26 -91 -37 l-44 -20 -24 29 c-70 87 -105 219 -86 330 43 247 278
401 518 339z m-46 -116 c70 -22 80 -29 98 -61 13 -25 19 -68 23 -183 4 -82 8
-157 11 -165 3 -11 -13 -19 -61 -30 -53 -13 -66 -20 -68 -38 -5 -30 33 -65 93
-87 28 -10 66 -24 85 -32 l34 -14 -44 -29 c-71 -47 -134 -65 -230 -65 -96 0
-159 18 -230 65 l-44 29 34 14 c19 8 57 22 85 32 60 22 97 57 93 88 -3 19 -13
24 -71 36 -56 12 -67 17 -61 30 4 9 11 66 15 126 14 186 37 241 113 276 48 22
76 23 125 8z"/>
</g>
</svg>
