<?xml version="1.0" standalone="no"?>
<!DOCTYPE svg PUBLIC "-//W3C//DTD SVG 20010904//EN"
 "http://www.w3.org/TR/2001/REC-SVG-20010904/DTD/svg10.dtd">
<svg version="1.0" xmlns="http://www.w3.org/2000/svg"
 width="300.000000pt" height="261.000000pt" viewBox="0 0 300.000000 261.000000"
 preserveAspectRatio="xMidYMid meet">
<metadata>
Created by potrace 1.10, written by Peter Selinger 2001-2011
</metadata>
<g transform="translate(0.000000,261.000000) scale(0.100000,-0.100000)"
fill="#ffffff" stroke="none">
<path d="M295 2581 c-48 -29 -82 -75 -95 -130 -9 -40 -16 -51 -31 -51 -25 0
-77 -26 -107 -54 -39 -35 -54 -75 -54 -141 0 -74 29 -129 89 -166 51 -32 142
-33 193 -3 l36 21 109 -105 c61 -57 136 -127 168 -155 31 -28 57 -56 57 -64 0
-10 -33 -13 -152 -12 -84 0 -167 0 -185 -1 -69 -1 -100 -94 -48 -145 24 -25
26 -25 210 -25 l185 0 0 -43 c0 -24 5 -48 12 -55 7 -7 9 -12 5 -12 -4 0 5 -33
19 -72 41 -114 118 -232 216 -333 l89 -90 -39 -35 c-118 -108 -274 -252 -326
-302 l-61 -56 -30 21 c-45 33 -156 31 -206 -2 -102 -70 -119 -208 -35 -299 26
-29 88 -62 116 -62 15 0 20 -6 20 -29 0 -51 45 -119 99 -149 82 -46 202 -20
258 56 43 58 46 150 9 208 -13 19 -14 24 -2 31 8 4 44 36 81 70 37 35 69 63
71 63 2 0 4 -10 4 -22 0 -55 49 -171 99 -237 44 -58 134 -117 223 -146 75 -24
92 -26 217 -22 75 2 146 6 159 10 53 14 69 20 121 45 108 52 202 175 232 305
8 31 16 57 19 57 3 -1 36 -31 73 -68 l69 -68 -16 -38 c-32 -76 -15 -166 41
-217 44 -41 72 -51 140 -51 51 0 71 4 102 25 47 31 78 79 87 135 6 37 10 42
33 42 45 0 115 52 140 104 25 51 27 131 4 178 -48 95 -183 133 -279 78 l-31
-17 -44 41 c-24 23 -80 75 -124 116 -44 40 -117 109 -163 152 l-82 79 85 80
c46 45 105 112 130 149 42 63 102 182 111 219 2 9 10 41 18 71 9 30 16 65 16
78 l0 22 193 0 c217 0 222 2 234 73 4 29 1 40 -20 61 l-26 26 -191 0 c-156 0
-190 3 -190 14 0 8 46 56 102 107 57 52 129 119 162 151 l59 56 40 -21 c86
-45 199 -16 253 66 20 31 26 51 26 101 0 99 -43 162 -133 191 -44 15 -48 19
-59 63 -15 62 -49 105 -105 132 -93 45 -210 7 -257 -83 -27 -53 -29 -129 -3
-177 l18 -35 -109 -102 c-60 -56 -111 -103 -114 -103 -3 0 -16 16 -29 36 -14
19 -65 73 -113 119 -187 175 -407 249 -676 226 -156 -14 -287 -61 -416 -150
-48 -33 -164 -152 -191 -196 -11 -16 -20 -32 -21 -34 -5 -6 -56 38 -148 126
-87 85 -88 86 -73 112 24 41 30 88 17 140 -12 51 -36 84 -87 119 -42 29 -153
31 -198 3z m182 -44 c67 -44 84 -144 37 -212 l-26 -38 64 -60 c34 -32 94 -89
131 -124 l68 -66 -16 -33 c-28 -60 -65 -164 -65 -184 0 -11 -3 -20 -6 -20 -3
0 -44 37 -92 83 -48 46 -116 110 -152 143 -36 32 -71 67 -78 77 -12 16 -16 15
-52 -14 -126 -102 -306 51 -224 191 29 50 66 73 128 78 52 4 54 5 46 27 -14
37 8 96 51 137 55 53 121 58 186 15z m2214 -2 c14 -8 34 -26 43 -40 22 -33 36
-108 24 -129 -8 -14 -2 -16 37 -16 48 0 101 -21 122 -49 7 -9 20 -34 29 -57
30 -78 -20 -169 -108 -193 -36 -10 -49 -10 -83 4 -22 9 -49 25 -60 35 -20 18
-21 17 -92 -48 -39 -37 -114 -106 -166 -154 l-95 -87 -7 45 c-3 24 -23 78 -44
119 l-37 75 108 101 c60 56 120 111 134 122 l25 19 -21 20 c-27 25 -40 60 -40
105 0 117 121 184 231 128z m-1045 -119 c79 -17 124 -30 171 -51 29 -14 56
-25 59 -25 16 0 138 -92 190 -144 58 -58 154 -189 154 -211 0 -7 -235 -9 -705
-7 -614 2 -709 0 -735 -13 -36 -19 -41 -19 -33 1 3 8 12 13 19 10 9 -3 20 7
30 27 116 225 354 391 594 414 30 3 57 7 60 10 5 5 159 -4 196 -11z m-846
-350 c0 -2 -8 -10 -17 -17 -16 -13 -17 -12 -4 4 13 16 21 21 21 13z m1460
-101 c11 -13 10 -14 -4 -9 -9 3 -16 10 -16 15 0 13 6 11 20 -6z m15 -95 c12
-36 25 -82 28 -102 l6 -38 -804 0 c-760 0 -803 1 -800 18 16 76 30 132 42 160
l13 32 747 -2 746 -3 22 -65z m65 -91 c0 -5 -4 -9 -10 -9 -5 0 -10 7 -10 16 0
8 5 12 10 9 6 -3 10 -10 10 -16z m380 -104 c17 -20 16 -65 -1 -76 -23 -14
-2393 -11 -2407 3 -17 17 -15 54 4 72 14 14 137 16 1203 16 1045 0 1190 -2
1201 -15z m-415 -142 c-4 -10 -13 -43 -21 -73 -15 -58 -29 -92 -71 -175 -104
-205 -270 -338 -492 -394 -119 -30 -323 -30 -442 0 -283 72 -479 279 -555 589
-7 30 -13 58 -14 63 0 4 360 7 801 7 759 0 801 -1 794 -17z m-1254 -623 c-57
-50 -80 -135 -95 -342 l-4 -57 -84 -77 c-45 -42 -91 -85 -102 -95 -18 -17 -18
-18 5 -50 31 -44 33 -131 4 -171 -28 -38 -86 -68 -130 -68 -98 0 -185 115
-144 191 10 19 8 20 -23 14 -48 -9 -107 16 -142 59 -25 31 -30 46 -30 90 0 43
5 61 27 90 37 48 72 65 131 61 35 -2 57 -11 84 -33 l37 -29 120 111 c66 61
147 136 180 166 137 127 146 137 147 168 1 30 1 30 24 14 l24 -17 -29 -25z
m914 30 c-16 -30 -29 -38 -40 -21 -4 8 39 51 52 51 2 0 -3 -13 -12 -30z m-839
-49 c21 -10 58 -25 81 -31 39 -12 42 -16 37 -39 -3 -14 -8 -47 -11 -74 -5 -43
-8 -47 -27 -41 -51 15 -166 78 -166 91 0 13 39 113 44 113 1 0 20 -9 42 -19z
m1034 -171 c80 -74 167 -156 195 -182 49 -47 65 -57 65 -39 0 5 16 19 36 32
70 43 163 21 211 -51 64 -94 -17 -230 -136 -230 -40 0 -40 -1 -34 -30 13 -69
-42 -149 -119 -171 -88 -25 -188 57 -188 153 0 31 37 108 52 108 4 0 -29 35
-74 78 -45 42 -91 87 -103 98 -17 17 -23 38 -28 100 -8 100 -31 209 -57 269
-26 61 -25 66 8 30 15 -16 92 -91 172 -165z m-222 115 c22 -55 22 -60 7 -71
-25 -19 -175 -77 -181 -71 -3 3 -8 20 -10 39 -3 18 -9 50 -14 70 l-8 37 82 29
c44 16 85 28 91 27 5 -1 20 -28 33 -60z m-543 -15 c38 -5 76 -10 83 -10 8 0
12 -23 12 -81 l0 -80 -57 5 c-32 4 -78 11 -103 16 -25 5 -49 9 -54 10 -9 0 -1
116 11 145 3 10 12 14 22 10 8 -3 47 -10 86 -15z m306 -7 c1 -24 4 -50 13 -99
l7 -41 -48 -7 c-26 -3 -70 -9 -98 -11 l-50 -6 0 80 0 80 55 6 c30 4 60 8 65
10 28 10 55 4 56 -12z m-508 -147 c20 -5 27 -11 23 -24 -2 -9 -7 -43 -11 -74
-3 -32 -8 -58 -9 -58 -4 0 -134 72 -164 91 -21 13 -23 19 -18 74 3 33 5 63 5
68 1 4 34 -10 74 -32 39 -21 85 -42 100 -45z m786 42 c1 -13 3 -43 4 -68 l2
-45 -94 -48 c-51 -26 -96 -46 -98 -43 -3 3 -11 36 -17 74 l-12 70 66 22 c36
12 81 30 100 40 46 24 47 24 49 -2z m-729 -38 c0 -5 -2 -10 -4 -10 -3 0 -8 5
-11 10 -3 6 -1 10 4 10 6 0 11 -4 11 -10z m500 -10 c0 -5 -2 -10 -4 -10 -3 0
-8 5 -11 10 -3 6 -1 10 4 10 6 0 11 -4 11 -10z m-357 -42 l97 -12 0 -79 0 -80
-60 6 c-34 4 -90 15 -126 24 l-66 18 7 60 c4 33 8 66 8 73 0 9 8 11 21 8 12
-3 65 -11 119 -18z m122 12 c3 -5 2 -10 -4 -10 -5 0 -13 5 -16 10 -3 6 -2 10
4 10 5 0 13 -4 16 -10z m221 -65 l9 -76 -49 -14 c-27 -8 -77 -18 -112 -21
l-64 -7 0 80 0 80 98 15 c53 8 99 16 103 17 3 0 9 -33 15 -74z m-616 -67 c272
-123 541 -119 806 12 l76 38 -7 -66 c-18 -185 -108 -313 -266 -379 -56 -23
-81 -27 -194 -31 -80 -3 -151 0 -185 8 -112 25 -216 93 -273 180 -31 48 -67
165 -74 239 l-6 74 44 -30 c24 -16 60 -36 79 -45z"/>
<path d="M1033 2157 c-57 -60 -77 -92 -69 -113 8 -21 31 -17 43 9 6 12 34 48
63 79 48 54 56 78 26 78 -7 0 -36 -24 -63 -53z"/>
<path d="M1943 2183 c-19 -7 -16 -22 14 -57 14 -17 37 -55 49 -83 24 -54 40
-65 51 -38 15 40 -82 191 -114 178z"/>
<path d="M1129 2098 c-40 -63 -46 -90 -19 -96 9 -1 24 15 38 42 13 24 32 53
43 65 20 21 16 51 -7 51 -8 0 -32 -28 -55 -62z"/>
<path d="M1815 2119 c-9 -13 16 -97 33 -111 10 -8 17 -8 27 3 11 12 10 22 -10
67 -23 51 -37 63 -50 41z"/>
<path d="M1251 2091 c-25 -35 -27 -57 -5 -65 10 -4 21 4 32 24 9 16 20 30 25
30 14 0 7 28 -9 34 -22 8 -20 9 -43 -23z"/>
<path d="M1095 1484 c-146 -76 -163 -257 -34 -368 95 -81 240 -54 313 57 91
140 -21 327 -195 327 -30 0 -67 -7 -84 -16z m153 -27 c6 -5 12 -6 12 -3 0 8
17 -5 68 -52 36 -33 37 -37 41 -113 l3 -78 -50 -53 -51 -53 -74 0 c-69 0 -78
3 -114 31 -117 93 -106 263 22 317 42 18 122 20 143 4z"/>
<path d="M1736 1480 c-87 -44 -129 -110 -125 -198 4 -90 31 -139 99 -180 38
-22 57 -26 120 -27 68 0 79 3 117 30 54 38 93 116 93 186 0 151 -169 256 -304
189z m198 -48 c97 -67 104 -193 16 -284 l-46 -48 -75 4 c-90 4 -125 21 -163
80 -24 36 -27 49 -24 106 7 117 64 169 188 169 55 0 71 -4 104 -27z"/>
<path d="M1473 1070 c-34 -14 -57 -54 -43 -79 35 -66 160 -47 160 23 0 19 -9
32 -32 46 -36 22 -51 23 -85 10z m70 -35 c43 -18 -7 -64 -57 -51 -33 8 -34 39
-3 53 23 11 31 11 60 -2z"/>
</g>
</svg>
